<mxfile>
    <diagram id="-4J3fAjuFW6k7uGm5vww" name="第 1 页">
        <mxGraphModel dx="1206" dy="829" grid="0" gridSize="10" guides="1" tooltips="0" connect="1" arrows="1" fold="1" page="1" pageScale="1" pageWidth="827" pageHeight="1169" math="0" shadow="0">
            <root>
                <mxCell id="0"/>
                <mxCell id="1" parent="0"/>
                <mxCell id="3" value="内容编辑窗口(渲染进程)" style="swimlane;" parent="1" vertex="1">
                    <mxGeometry x="130" y="120" width="537" height="100" as="geometry"/>
                </mxCell>
                <mxCell id="27" value="打开本地Markdown文件" style="rounded=1;whiteSpace=wrap;html=1;" parent="3" vertex="1">
                    <mxGeometry x="20" y="40" width="150" height="40" as="geometry"/>
                </mxCell>
                <mxCell id="29" value="登录" style="rounded=1;whiteSpace=wrap;html=1;" parent="3" vertex="1">
                    <mxGeometry x="190" y="40" width="85" height="40" as="geometry"/>
                </mxCell>
                <mxCell id="28" value="发布" style="rounded=1;whiteSpace=wrap;html=1;" parent="3" vertex="1">
                    <mxGeometry x="310" y="40" width="90" height="40" as="geometry"/>
                </mxCell>
                <mxCell id="36" value="内容编辑" style="rounded=0;whiteSpace=wrap;html=1;" parent="3" vertex="1">
                    <mxGeometry x="430" y="40" width="83" height="40" as="geometry"/>
                </mxCell>
                <mxCell id="15" value="简书" style="ellipse;shape=cloud;whiteSpace=wrap;html=1;" parent="1" vertex="1">
                    <mxGeometry x="300" y="710" width="200" height="80" as="geometry"/>
                </mxCell>
                <mxCell id="16" value="主进程" style="swimlane;" parent="1" vertex="1">
                    <mxGeometry x="40" y="340" width="720" height="280" as="geometry"/>
                </mxCell>
                <mxCell id="17" value="登录" style="shape=ext;double=1;rounded=0;whiteSpace=wrap;html=1;" parent="16" vertex="1">
                    <mxGeometry x="260" y="111.5" width="100" height="50" as="geometry"/>
                </mxCell>
                <mxCell id="18" value="发布" style="shape=ext;double=1;rounded=0;whiteSpace=wrap;html=1;" parent="16" vertex="1">
                    <mxGeometry x="566.5" y="109.5" width="103.5" height="53.5" as="geometry"/>
                </mxCell>
                <mxCell id="20" value="" style="endArrow=classic;html=1;exitX=1;exitY=0.5;exitDx=0;exitDy=0;entryX=-0.027;entryY=0.414;entryDx=0;entryDy=0;entryPerimeter=0;" parent="16" source="17" target="22" edge="1">
                    <mxGeometry width="50" height="50" relative="1" as="geometry">
                        <mxPoint x="506.5" y="226.5" as="sourcePoint"/>
                        <mxPoint x="402.5" y="133.5" as="targetPoint"/>
                    </mxGeometry>
                </mxCell>
                <mxCell id="21" value="Cookie" style="text;html=1;align=center;verticalAlign=middle;resizable=0;points=[];autosize=1;" parent="16" vertex="1">
                    <mxGeometry x="359.5" y="116.5" width="50" height="20" as="geometry"/>
                </mxCell>
                <mxCell id="22" value="electron-store" style="shape=datastore;whiteSpace=wrap;html=1;" parent="16" vertex="1">
                    <mxGeometry x="416.5" y="86.5" width="90" height="121" as="geometry"/>
                </mxCell>
                <mxCell id="23" value="" style="endArrow=classic;html=1;entryX=0;entryY=0.5;entryDx=0;entryDy=0;" parent="16" target="18" edge="1">
                    <mxGeometry width="50" height="50" relative="1" as="geometry">
                        <mxPoint x="509.5" y="136.5" as="sourcePoint"/>
                        <mxPoint x="566.5" y="186.5" as="targetPoint"/>
                    </mxGeometry>
                </mxCell>
                <mxCell id="24" value="Cookie" style="text;html=1;align=center;verticalAlign=middle;resizable=0;points=[];autosize=1;" parent="16" vertex="1">
                    <mxGeometry x="516.5" y="111.5" width="50" height="20" as="geometry"/>
                </mxCell>
                <mxCell id="33" value="文件选择" style="rounded=0;whiteSpace=wrap;html=1;" parent="16" vertex="1">
                    <mxGeometry x="30" y="50" width="120" height="60" as="geometry"/>
                </mxCell>
                <mxCell id="34" value="图片解析" style="rounded=0;whiteSpace=wrap;html=1;" parent="16" vertex="1">
                    <mxGeometry x="30" y="130" width="120" height="60" as="geometry"/>
                </mxCell>
                <mxCell id="35" value="消息通知等" style="rounded=0;whiteSpace=wrap;html=1;" parent="16" vertex="1">
                    <mxGeometry x="30" y="207.5" width="120" height="60" as="geometry"/>
                </mxCell>
                <mxCell id="26" value="" style="shape=flexArrow;endArrow=classic;startArrow=classic;html=1;entryX=0.5;entryY=1;entryDx=0;entryDy=0;" parent="1" target="3" edge="1">
                    <mxGeometry width="50" height="50" relative="1" as="geometry">
                        <mxPoint x="399" y="340" as="sourcePoint"/>
                        <mxPoint x="410" y="220" as="targetPoint"/>
                    </mxGeometry>
                </mxCell>
                <mxCell id="30" value="消息" style="text;html=1;align=center;verticalAlign=middle;resizable=0;points=[];autosize=1;" parent="1" vertex="1">
                    <mxGeometry x="414" y="273" width="40" height="20" as="geometry"/>
                </mxCell>
                <mxCell id="31" value="" style="shape=flexArrow;endArrow=classic;startArrow=classic;html=1;entryX=0.502;entryY=0.073;entryDx=0;entryDy=0;entryPerimeter=0;" parent="1" target="15" edge="1">
                    <mxGeometry width="50" height="50" relative="1" as="geometry">
                        <mxPoint x="400" y="630" as="sourcePoint"/>
                        <mxPoint x="450" y="580" as="targetPoint"/>
                    </mxGeometry>
                </mxCell>
            </root>
        </mxGraphModel>
    </diagram>
</mxfile>
